<?xml version="1.0" encoding="UTF-8"?><svg id="Layer_1" xmlns="http://www.w3.org/2000/svg" viewBox="0 0 115.99 122.89"><defs><style>.cls-1{fill:#7acac5;stroke-width:0px;}</style></defs><path class="cls-1" d="M17.2,0h59.47c4.73,0,9.03,1.93,12.15,5.05,3.12,3.12,5.05,7.42,5.05,12.15v38.36c0,4.73-1.93,9.03-5.05,12.15-3.12,3.12-7.42,5.05-12.15,5.05h-29.74l-26.12,22.45c-1.21,1.04-3.04.9-4.08-.32-.51-.6-.74-1.34-.69-2.07l1.39-20.07h-.23c-4.73,0-9.03-1.93-12.15-5.05-3.12-3.11-5.05-7.41-5.05-12.14V17.2c0-4.73,1.93-9.03,5.05-12.15C8.16,1.93,12.46,0,17.2,0h0ZM102.31,27.98c3.37.65,6.39,2.31,8.73,4.65,3.05,3.05,4.95,7.26,4.95,11.9v38.36c0,4.64-1.89,8.85-4.95,11.9-3.05,3.05-7.26,4.95-11.9,4.95h-.61l1.42,20.44h0c.04.64-.15,1.3-.6,1.82-.91,1.07-2.52,1.19-3.58.28l-26.22-23.2h-34.54l17.01-17.3h36.04c7.86,0,14.3-6.43,14.3-14.3V29.11c-.01-.38-.02-.76-.05-1.13h0ZM25.68,43.68c-1.6,0-2.9-1.3-2.9-2.9s1.3-2.9,2.9-2.9h30.35c1.6,0,2.9,1.3,2.9,2.9s-1.3,2.9-2.9,2.9h-30.35ZM25.68,29.32c-1.6,0-2.9-1.3-2.9-2.9s1.3-2.9,2.9-2.9h43.02c1.6,0,2.9,1.3,2.9,2.9s-1.3,2.9-2.9,2.9H25.68ZM76.66,5.8H17.2c-3.13,0-5.98,1.28-8.05,3.35-2.07,2.07-3.35,4.91-3.35,8.05v38.36c0,3.13,1.28,5.98,3.35,8.05s4.92,3.35,8.05,3.35h3.34s.19.02.19.02c1.59.11,2.8,1.49,2.69,3.08l-1.13,16.26,21.54-18.52c.52-.52,1.24-.84,2.04-.84h30.79c3.13,0,5.98-1.28,8.05-3.35s3.35-4.92,3.35-8.05V17.2c0-3.13-1.28-5.98-3.35-8.05-2.06-2.07-4.91-3.35-8.05-3.35h0Z"/></svg>